<svg xmlns="http://www.w3.org/2000/svg" viewBox="0 0 16 16" width="16" height="16" shape-rendering="crispEdges" role="img" aria-label="bird">
<rect x="4" y="1" width="8" height="1" fill="currentColor"/>
<rect x="4" y="2" width="1" height="3" fill="currentColor"/>
<rect x="11" y="2" width="1" height="3" fill="currentColor"/>
<rect x="3" y="5" width="2" height="1" fill="currentColor"/>
<rect x="11" y="5" width="2" height="1" fill="currentColor"/>
<rect x="2" y="6" width="1" height="1" fill="currentColor"/>
<rect x="4" y="6" width="1" height="2" fill="currentColor"/>
<rect x="11" y="6" width="1" height="2" fill="currentColor"/>
<rect x="13" y="6" width="1" height="1" fill="currentColor"/>
<rect x="1" y="7" width="1" height="1" fill="currentColor"/>
<rect x="14" y="7" width="1" height="1" fill="currentColor"/>
<rect x="4" y="8" width="8" height="1" fill="currentColor"/>
<rect x="4" y="9" width="1" height="6" fill="currentColor"/>
<rect x="11" y="9" width="1" height="6" fill="currentColor"/>
<rect x="4" y="15" width="8" height="1" fill="currentColor"/>
</svg>
