<svg xmlns="http://www.w3.org/2000/svg" viewBox="0 0 16 16" width="16" height="16" shape-rendering="crispEdges" role="img" aria-label="child">
<rect x="0" y="5" width="1" height="3" fill="currentColor"/>
<rect x="6" y="5" width="1" height="3" fill="currentColor"/>
<rect x="8" y="5" width="1" height="1" fill="currentColor"/>
<rect x="11" y="5" width="1" height="2" fill="currentColor"/>
<rect x="14" y="5" width="1" height="1" fill="currentColor"/>
<rect x="9" y="6" width="1" height="1" fill="currentColor"/>
<rect x="13" y="6" width="1" height="1" fill="currentColor"/>
<rect x="10" y="7" width="3" height="1" fill="currentColor"/>
<rect x="0" y="8" width="7" height="1" fill="currentColor"/>
<rect x="8" y="8" width="7" height="1" fill="currentColor"/>
<rect x="0" y="9" width="1" height="3" fill="currentColor"/>
<rect x="10" y="9" width="1" height="1" fill="currentColor"/>
<rect x="12" y="9" width="1" height="1" fill="currentColor"/>
<rect x="9" y="10" width="1" height="1" fill="currentColor"/>
<rect x="13" y="10" width="1" height="1" fill="currentColor"/>
<rect x="8" y="11" width="1" height="1" fill="currentColor"/>
<rect x="14" y="11" width="1" height="1" fill="currentColor"/>
</svg>
