<svg xmlns="http://www.w3.org/2000/svg" viewBox="0 0 16 16" width="16" height="16" shape-rendering="crispEdges" role="img" aria-label="rotate">
<rect x="2" y="1" width="1" height="4" fill="currentColor"/>
<rect x="7" y="1" width="6" height="1" fill="currentColor"/>
<rect x="12" y="2" width="1" height="3" fill="currentColor"/>
<rect x="2" y="5" width="11" height="1" fill="currentColor"/>
<rect x="6" y="7" width="1" height="1" fill="currentColor"/>
<rect x="8" y="7" width="4" height="1" fill="currentColor"/>
<rect x="5" y="8" width="1" height="1" fill="currentColor"/>
<rect x="8" y="8" width="1" height="2" fill="currentColor"/>
<rect x="11" y="8" width="1" height="2" fill="currentColor"/>
<rect x="4" y="9" width="1" height="1" fill="currentColor"/>
<rect x="3" y="10" width="1" height="1" fill="currentColor"/>
<rect x="8" y="10" width="4" height="1" fill="currentColor"/>
<rect x="6" y="12" width="1" height="1" fill="currentColor"/>
<rect x="8" y="12" width="4" height="1" fill="currentColor"/>
<rect x="5" y="13" width="1" height="1" fill="currentColor"/>
<rect x="8" y="13" width="1" height="2" fill="currentColor"/>
<rect x="11" y="13" width="1" height="2" fill="currentColor"/>
<rect x="4" y="14" width="1" height="1" fill="currentColor"/>
<rect x="3" y="15" width="1" height="1" fill="currentColor"/>
<rect x="8" y="15" width="4" height="1" fill="currentColor"/>
</svg>
