<svg xmlns="http://www.w3.org/2000/svg" viewBox="0 0 16 16" width="16" height="16" shape-rendering="crispEdges" role="img" aria-label="variable">
<rect x="4" y="1" width="7" height="1" fill="currentColor"/>
<rect x="5" y="2" width="1" height="1" fill="currentColor"/>
<rect x="9" y="2" width="1" height="1" fill="currentColor"/>
<rect x="6" y="3" width="1" height="1" fill="currentColor"/>
<rect x="8" y="3" width="1" height="1" fill="currentColor"/>
<rect x="7" y="4" width="1" height="1" fill="currentColor"/>
<rect x="6" y="5" width="1" height="1" fill="currentColor"/>
<rect x="8" y="5" width="1" height="1" fill="currentColor"/>
<rect x="5" y="6" width="1" height="1" fill="currentColor"/>
<rect x="9" y="6" width="1" height="1" fill="currentColor"/>
<rect x="4" y="7" width="1" height="1" fill="currentColor"/>
<rect x="10" y="7" width="1" height="1" fill="currentColor"/>
<rect x="4" y="9" width="1" height="3" fill="currentColor"/>
<rect x="10" y="9" width="1" height="3" fill="currentColor"/>
<rect x="4" y="12" width="7" height="1" fill="currentColor"/>
<rect x="4" y="13" width="1" height="3" fill="currentColor"/>
<rect x="10" y="13" width="1" height="3" fill="currentColor"/>
</svg>
